<?xml version="1.0" encoding="UTF-8"?>
<!DOCTYPE svg PUBLIC "-//W3C//DTD SVG 1.1//EN" "http://www.w3.org/Graphics/SVG/1.1/DTD/svg11.dtd">
<!-- Creator: CorelDRAW X8 -->
<svg xmlns="http://www.w3.org/2000/svg" xml:space="preserve" width="195.527mm"
	 height="208.685mm" version="1.1"
	 style="shape-rendering:geometricPrecision; text-rendering:geometricPrecision; image-rendering:optimizeQuality; fill-rule:evenodd; clip-rule:evenodd"
viewBox="0 0 19553 20868"
 xmlns:xlink="http://www.w3.org/1999/xlink">
 <defs>
  <style type="text/css">
   <![CDATA[
    .fil0 {fill:#29867C}
   ]]>
  </style>
 </defs>
 <g id="Capa_x0020_1">
  <metadata id="CorelCorpID_0Corel-Layer" />
  <path class="fil0" d="M16814 4974c-579,-2979 -2840,-4144 -5887,-3797 -322,-410 -678,-811 -1151,-1177 -472,366 -828,767 -1151,1177 -3046,-347 -5307,818 -5887,3797 -1874,555 -2052,2087 -1719,3936 -378,349 -813,945 -1019,1524 206,579 641,1175 1019,1525 -333,1848 -155,3380 1719,3935 580,2980 2841,4145 5887,3797 323,411 679,811 1151,1177 473,-366 829,-766 1151,-1177 3047,348 5308,-817 5887,-3797 1874,-555 2053,-2087 1720,-3935 378,-350 813,-946 1019,-1525 -206,-579 -641,-1175 -1019,-1524 333,-1849 154,-3381 -1720,-3936zm-2654 4893c0,0 -473,106 -757,298 -285,192 -649,297 -1026,331 -377,33 -2206,-62 -2206,-62 981,-883 2519,-764 3989,-567zm-988 142c-246,139 -540,209 -817,234 -128,11 -273,6 -402,4 -213,-3 -425,-9 -637,-17 -104,-4 -208,-8 -312,-12 650,-259 1436,-269 2168,-209zm-154 1024c0,0 -334,-89 -531,-233 -197,-145 -452,-230 -720,-264 -267,-34 -1570,-17 -1570,-17 673,655 1770,613 2821,514zm-866 -131c-495,57 -984,-48 -1394,-215 119,5 238,11 356,18 173,9 406,-3 576,24 155,25 307,124 462,173zm-6759 -1035c0,0 473,106 757,298 284,192 648,297 1025,331 377,33 2206,-62 2206,-62 -980,-883 -2519,-764 -3988,-567zm988 142c245,139 540,209 817,234 128,11 273,6 402,4 212,-3 424,-9 636,-17 105,-4 209,-8 313,-12 -651,-259 -1436,-269 -2168,-209zm154 1024c0,0 333,-89 530,-233 197,-145 453,-230 720,-264 268,-34 1571,-17 1571,-17 -673,655 -1770,613 -2821,514zm865 -131c496,57 984,-48 1394,-215 -118,5 -237,11 -356,18 -173,9 -405,-3 -575,24 -155,25 -307,124 -463,173zm-6684 -468c377,-962 1641,-1898 2653,-2095 -201,-294 -494,-766 -695,-1059 231,678 -457,781 -984,1138 -322,-1042 -331,-3622 3362,-2798 -134,-367 -233,-810 -503,-1306 43,196 51,307 17,489 -411,21 -699,-41 -1099,63 293,-2388 2974,-3331 4750,-2887 -446,678 -759,1085 -1620,912 521,159 905,473 1323,807 0,0 66,-363 562,-1236 496,-874 1294,-1555 1294,-1555 0,0 799,681 1295,1555 496,873 562,1236 562,1236 418,-334 802,-648 1323,-807 -862,173 -1174,-234 -1620,-912 1776,-444 4457,499 4750,2887 -400,-104 -688,-42 -1099,-63 -34,-182 -26,-293 16,-489 -269,496 -368,939 -502,1306 3693,-824 3684,1756 3362,2798 -527,-357 -1215,-460 -984,-1138 -201,293 -494,765 -695,1059 1011,197 2276,1133 2653,2095 -377,963 -1642,1898 -2653,2096 201,293 494,765 695,1058 -231,-678 457,-781 984,-1138 322,1042 331,3622 -3362,2799 134,366 233,809 502,1306 -42,-196 -50,-307 -16,-490 411,-20 699,42 1099,-63 -293,2389 -2974,3332 -4750,2888 446,-679 758,-1085 1620,-913 -521,-159 -905,-473 -1323,-807 0,0 -66,364 -562,1237 -496,873 -1295,1554 -1295,1554 0,0 -798,-681 -1294,-1554 -496,-873 -562,-1237 -562,-1237 -418,334 -802,648 -1323,807 861,-172 1174,234 1620,913 -1776,444 -4457,-499 -4750,-2888 400,105 688,43 1099,63 34,183 26,294 -17,490 270,-497 369,-940 503,-1306 -3693,823 -3684,-1757 -3362,-2799 527,357 1215,460 984,1138 201,-293 494,-765 695,-1058 -1012,-198 -2276,-1133 -2653,-2096zm8877 317c0,0 -1442,1640 -2017,2255 -576,615 -1879,1839 -2071,2209 -192,371 -304,821 -370,1290 -66,470 46,1436 46,1436 0,0 1091,-179 1786,-649 695,-469 1045,-873 1164,-1230 119,-357 226,-610 331,-886 292,-769 405,-1707 505,-2711 -163,638 -545,1626 -737,2294 -178,622 -476,1330 -813,1574 -338,245 -794,622 -1184,794 -390,172 -562,172 -562,172 0,0 13,-959 132,-1508 119,-549 370,-939 675,-1191 304,-251 1045,-999 1567,-1455 523,-456 946,-893 1032,-1032 86,-139 258,-436 258,-436 0,0 -251,2143 -351,2745 -99,602 -383,1137 -489,1296 -106,159 -99,1151 106,1660 205,510 721,1198 840,1376 119,179 335,351 335,351 0,0 217,-172 336,-351 119,-178 635,-866 840,-1376 205,-509 212,-1501 106,-1660 -106,-159 -391,-694 -490,-1296 -99,-602 -350,-2745 -350,-2745 0,0 172,297 258,436 86,139 509,576 1032,1032 522,456 1263,1204 1567,1455 304,252 556,642 675,1191 119,549 132,1508 132,1508 0,0 -172,0 -562,-172 -390,-172 -847,-549 -1184,-794 -337,-244 -635,-952 -814,-1574 -191,-668 -574,-1656 -736,-2294 100,1004 213,1942 505,2711 105,276 211,529 331,886 119,357 469,761 1164,1230 694,470 1786,649 1786,649 0,0 112,-966 46,-1436 -66,-469 -179,-919 -370,-1290 -192,-370 -1495,-1594 -2071,-2209 -575,-615 -2017,-2255 -2017,-2255 0,0 -27,760 0,1137 26,377 -27,715 -53,1158 -27,443 -13,331 132,860 146,529 384,1223 509,1667 126,443 166,734 47,1382 -119,648 -819,1442 -819,1442 0,0 -699,-794 -818,-1442 -119,-648 -79,-939 46,-1382 126,-444 364,-1138 510,-1667 145,-529 158,-417 132,-860 -27,-443 -79,-781 -53,-1158 26,-377 0,-1137 0,-1137zm-5940 3502c0,0 1230,53 1984,-404 755,-456 1118,-1051 1409,-1395 291,-344 1217,-1085 1217,-1085 0,0 -1905,377 -2698,661 -794,285 -1164,530 -1482,1251 -317,721 -430,972 -430,972zm-1988 -3819c366,1275 1896,1998 3086,1329 106,-60 146,-278 354,-298 208,-20 933,102 933,102 -1434,210 -1973,532 -2620,1757 -158,301 -740,1230 -740,1230 0,0 763,367 1557,314 794,-53 1482,-264 1925,-754 443,-489 1098,-1131 1409,-1442 311,-311 1832,-1964 1832,-1964 -733,307 -1246,443 -1772,548 -1215,243 -2150,-205 -2560,-165 -212,20 -827,371 -1145,357 -583,-24 -1331,-442 -1514,-1014 183,-571 931,-990 1514,-1014 318,-13 933,337 1145,357 410,41 1345,-407 2560,-165 526,105 1039,241 1772,549 0,0 -1521,-1654 -1832,-1965 -311,-311 -966,-952 -1409,-1442 -443,-489 -1131,-701 -1925,-754 -794,-53 -1557,314 -1557,314 0,0 582,930 740,1231 647,1225 1186,1546 2620,1756 0,0 -725,122 -933,103 -208,-20 -248,-239 -354,-298 -1190,-670 -2720,54 -3086,1328zm14235 3819c0,0 -1231,53 -1985,-404 -754,-456 -1118,-1051 -1409,-1395 -291,-344 -1217,-1085 -1217,-1085 0,0 1905,377 2699,661 794,285 1164,530 1482,1251 317,721 430,972 430,972zm1987 -3819c-365,1275 -1895,1998 -3085,1329 -106,-60 -146,-278 -354,-298 -209,-20 -933,102 -933,102 1434,210 1973,532 2619,1757 159,301 741,1230 741,1230 0,0 -764,367 -1558,314 -793,-53 -1481,-264 -1924,-754 -444,-489 -1098,-1131 -1409,-1442 -311,-311 -1833,-1964 -1833,-1964 733,307 1247,443 1772,548 1216,243 2151,-205 2561,-165 212,20 827,371 1144,357 584,-24 1332,-442 1515,-1014 -183,-571 -931,-990 -1515,-1014 -317,-13 -932,337 -1144,357 -410,41 -1345,-407 -2561,-165 -525,105 -1039,241 -1772,549 0,0 1522,-1654 1833,-1965 311,-311 965,-952 1409,-1442 443,-489 1131,-701 1924,-754 794,-53 1558,314 1558,314 0,0 -582,930 -741,1231 -646,1225 -1185,1546 -2619,1756 0,0 724,122 933,103 208,-20 248,-239 354,-298 1190,-670 2720,54 3085,1328zm-8294 -316c0,0 -1442,-1640 -2017,-2256 -576,-615 -1879,-1839 -2071,-2209 -192,-370 -304,-820 -370,-1290 -66,-469 46,-1435 46,-1435 0,0 1091,178 1786,648 695,470 1045,873 1164,1230 119,358 226,610 331,887 292,768 405,1707 505,2711 -163,-638 -545,-1627 -737,-2295 -178,-621 -476,-1329 -813,-1574 -338,-245 -794,-622 -1184,-794 -390,-172 -562,-172 -562,-172 0,0 13,960 132,1509 119,549 370,939 675,1190 304,252 1045,999 1567,1455 523,457 946,893 1032,1032 86,139 258,437 258,437 0,0 -251,-2143 -351,-2745 -99,-602 -383,-1138 -489,-1297 -106,-158 -99,-1151 106,-1660 205,-509 721,-1197 840,-1376 119,-178 335,-350 335,-350 0,0 217,172 336,350 119,179 635,867 840,1376 205,509 212,1502 106,1660 -106,159 -391,695 -490,1297 -99,602 -350,2745 -350,2745 0,0 172,-298 258,-437 86,-139 509,-575 1032,-1032 522,-456 1263,-1203 1567,-1455 304,-251 556,-641 675,-1190 119,-549 132,-1509 132,-1509 0,0 -172,0 -562,172 -390,172 -847,549 -1184,794 -337,245 -635,953 -814,1574 -191,668 -574,1657 -736,2295 100,-1004 213,-1943 505,-2711 105,-277 211,-529 331,-887 119,-357 469,-760 1164,-1230 694,-470 1786,-648 1786,-648 0,0 112,966 46,1435 -66,470 -179,920 -370,1290 -192,370 -1495,1594 -2071,2209 -575,616 -2017,2256 -2017,2256 0,0 -27,-761 0,-1138 26,-377 -27,-714 -53,-1157 -27,-444 -13,-331 132,-860 146,-529 384,-1224 509,-1667 126,-443 166,-734 47,-1383 -119,-648 -819,-1442 -819,-1442 0,0 -699,794 -818,1442 -119,649 -79,940 46,1383 126,443 364,1138 510,1667 145,529 158,416 132,860 -27,443 -79,780 -53,1157 26,377 0,1138 0,1138zm-5940 -3502c0,0 1230,-53 1984,403 755,456 1118,1052 1409,1396 291,344 1217,1084 1217,1084 0,0 -1905,-377 -2698,-661 -794,-284 -1164,-529 -1482,-1250 -317,-721 -430,-972 -430,-972zm12247 0c0,0 -1231,-53 -1985,403 -754,456 -1118,1052 -1409,1396 -291,344 -1217,1084 -1217,1084 0,0 1905,-377 2699,-661 794,-284 1164,-529 1482,-1250 317,-721 430,-972 430,-972z" />
 </g>
</svg>